<svg width="71.000000" height="70.000000" viewBox="0 0 71 70" fill="none" xmlns="http://www.w3.org/2000/svg" xmlns:xlink="http://www.w3.org/1999/xlink">
	<desc>
			Created with Pixso.
	</desc>
	<defs/>
	<circle id="Oval" cx="35.500000" cy="35.000000" r="35.000000" fill="#F78434" fill-opacity="1.000000"/>
	<circle id="Oval" cx="35.500000" cy="35.000000" r="35.000000" stroke="#979797" stroke-opacity="0" stroke-width="0.000000"/>
	<path id="Path" d="M39.75 20L46.5 20L46.5 27.5L39.75 27.5L39.75 20Z" fill="#FFFFFF" fill-opacity="1.000000" fill-rule="nonzero"/>
	<path id="Path" d="M24 20L30.75 20L30.75 27.5L24 27.5L24 20Z" fill="#FFFFFF" fill-opacity="1.000000" fill-rule="nonzero"/>
	<ellipse id="Oval" cx="35.625000" cy="41.000000" rx="4.125000" ry="3.750000" fill="#FFFFFF" fill-opacity="1.000000"/>
	<path id="Shape" d="M26.25 41.375C26.25 36.6116 30.2794 32.75 35.25 32.75C40.2206 32.75 44.25 36.6116 44.25 41.375C44.25 46.1384 40.2206 50 35.25 50C30.2794 50 26.25 46.1384 26.25 41.375ZM29.3931 41.375C29.3931 44.47 32.0205 46.9878 35.25 46.9878C38.4795 46.9878 41.1069 44.47 41.1069 41.375C41.1069 38.28 38.4795 35.7622 35.25 35.7622C32.0205 35.7622 29.3931 38.28 29.3931 41.375Z" clip-rule="evenodd" fill="#FFFFFF" fill-opacity="1.000000" fill-rule="evenodd"/>
	<path id="Path" d="M31.34 31.39C32.12 31.04 32.92 30.81 33.75 30.67L32.13 29L25.5 29L29.1 32.75C29.79 32.2 30.54 31.74 31.34 31.39Z" fill="#FFFFFF" fill-opacity="1.000000" fill-rule="nonzero"/>
	<path id="Path" d="M36.75 30.67C37.57 30.81 38.37 31.04 39.15 31.39C39.95 31.74 40.7 32.2 41.39 32.75L45 29L38.36 29C37.92 29.45 37.32 30.08 36.75 30.67Z" fill="#FFFFFF" fill-opacity="1.000000" fill-rule="nonzero"/>
</svg>
