<svg width="24.508392" height="20.000000" viewBox="0 0 24.5084 20" fill="none" xmlns="http://www.w3.org/2000/svg" xmlns:xlink="http://www.w3.org/1999/xlink">
	<desc>
			Created with Pixso.
	</desc>
	<defs/>
	<mask id="mask0_26" mask-type="alpha" maskUnits="userSpaceOnUse" x="0.000000" y="0.043457" width="24.460625" height="19.918457">
		<path id="Clip 2" d="M0 0.04L24.46 0.04L24.46 19.96L0 19.96L0 0.04Z" fill="#000000" fill-opacity="1.000000" fill-rule="evenodd"/>
	</mask>
	<g mask="url(#mask0_26)">
		<path id="Fill 1" d="M7.65 19.96C16.9 19.96 21.96 12.29 21.96 5.65C21.96 5.43 21.96 5.22 21.95 5C22.93 4.29 23.78 3.4 24.46 2.4C23.55 2.8 22.58 3.07 21.57 3.19C22.61 2.57 23.4 1.58 23.78 0.41C22.81 0.98 21.73 1.4 20.59 1.63C19.67 0.65 18.36 0.04 16.92 0.04C14.14 0.04 11.89 2.29 11.89 5.07C11.89 5.46 11.93 5.84 12.02 6.21C7.84 6 4.13 4 1.65 0.96C1.22 1.7 0.97 2.57 0.97 3.49C0.97 5.23 1.86 6.77 3.21 7.67C2.38 7.65 1.61 7.42 0.93 7.04C0.93 7.06 0.93 7.08 0.93 7.11C0.93 9.54 2.66 11.58 4.97 12.04C4.54 12.15 4.1 12.21 3.64 12.21C3.32 12.21 3 12.18 2.69 12.12C3.33 14.12 5.19 15.57 7.39 15.62C5.67 16.96 3.5 17.77 1.15 17.77C0.74 17.77 0.34 17.74 -0.05 17.7C2.17 19.12 4.82 19.96 7.66 19.96L7.65 19.96Z" fill="#1DA1F2" fill-opacity="1.000000" fill-rule="evenodd"/>
	</g>
</svg>
