<svg width="28.523678" height="20.000000" viewBox="0 0 28.5237 20" fill="none" xmlns="http://www.w3.org/2000/svg" xmlns:xlink="http://www.w3.org/1999/xlink">
	<desc>
			Created with Pixso.
	</desc>
	<defs/>
	<mask id="mask0_41" mask-type="alpha" maskUnits="userSpaceOnUse" x="0.003326" y="0.000000" width="28.520231" height="19.971191">
		<path id="Clip 2" d="M0 0L28.52 0L28.52 19.97L0 19.97L0 0Z" fill="#000000" fill-opacity="1.000000" fill-rule="evenodd"/>
	</mask>
	<g mask="url(#mask0_41)">
		<path id="Fill 1" d="M27.93 3.12C27.6 1.9 26.64 0.93 25.42 0.61C23.19 0 14.26 0 14.26 0C14.26 0 5.33 0 3.1 0.58C1.9 0.91 0.91 1.9 0.58 3.12C0 5.35 0 9.98 0 9.98C0 9.98 0 14.63 0.58 16.84C0.91 18.06 1.87 19.03 3.1 19.36C5.35 19.97 14.26 19.97 14.26 19.97C14.26 19.97 23.19 19.97 25.42 19.38C26.64 19.05 27.6 18.09 27.93 16.86C28.52 14.63 28.52 10 28.52 10C28.52 10 28.54 5.35 27.93 3.12Z" fill="#FF0000" fill-opacity="1.000000" fill-rule="evenodd"/>
	</g>
	<path id="Fill 4" d="M11.41 14.26L18.84 9.98L11.41 5.7L11.41 14.26Z" fill="#FFFFFF" fill-opacity="1.000000" fill-rule="evenodd"/>
</svg>
