<svg width="174.756" height="174.756" xmlns="http://www.w3.org/2000/svg">

 <g>
  <title>Layer 1</title>
  <g id="svg_12">
   <path stroke="null" id="svg_3" d="m99.79795,11.83624l3.2156,0.66464c0.34801,0.07231 1.04303,0.10004 2.09004,0.08419c0.524,0.00297 0.99232,-0.16839 1.39601,-0.51507c0.40568,-0.34668 0.66619,-0.78845 0.77656,-1.32432c0.16704,-0.79241 0.03878,-1.45309 -0.37684,-1.98103c-0.41562,-0.52894 -1.32044,-0.93802 -2.71148,-1.22527l-3.35182,-0.69336l-1.03806,4.99022zm26.14934,-2.70609l17.39445,11.19086l-2.90736,4.48803l-10.88868,-7.00394l-2.15367,3.32417l10.135,6.52057l-2.77512,4.28101l-10.135,-6.52156l-2.66873,4.11461l11.22078,7.21988l-3.07043,4.73764l-17.72854,-11.40679l0.30326,-0.46851l-7.91967,-1.63831l-2.51063,-8.27973c-0.3142,-1.06877 -0.64431,-1.79085 -0.98635,-2.16131a3.2842,3.27168 0 0 0 -1.74601,-0.94991l-0.67215,-0.13966l-2.05822,9.88139l-7.58559,-1.56898l5.08788,-24.41228l12.62475,2.611c2.3406,0.48436 4.08761,1.0549 5.241,1.71161c1.1534,0.6577 1.99657,1.60563 2.53052,2.84774c0.52997,1.24013 0.63536,2.63973 0.31022,4.19682c-0.28338,1.35899 -0.81732,2.46936 -1.60382,3.33309s-1.75197,1.49766 -2.89543,1.89882c-0.72783,0.25555 -1.68535,0.39423 -2.86461,0.41701c0.84119,0.48634 1.4328,0.92217 1.78479,1.30748c0.23466,0.25753 0.55184,0.76765 0.94161,1.53233c0.39375,0.76468 0.64232,1.34314 0.74573,1.73439l1.99458,7.03267l12.85543,-19.83014zm25.20773,28.0237l-11.06567,8.05488l1.1186,1.52837c0.95752,1.30253 1.7828,2.12466 2.47583,2.46441c0.69303,0.33975 1.51433,0.40215 2.46788,0.1882c0.95155,-0.21395 2.2372,-0.91128 3.85891,-2.09098c2.14572,-1.56204 3.35977,-2.97947 3.63917,-4.25427c0.2794,-1.2738 -0.16903,-2.71897 -1.35524,-4.33351l-1.13948,-1.55709zm18.04075,18.6237l1.79672,7.50812l-8.50234,2.01669l1.95581,8.18167l8.50234,-2.01768l1.79473,7.50812l-24.34666,5.7757l-1.79473,-7.50713l9.85361,-2.33762l-1.95581,-8.18068l-9.8556,2.33762l-1.79274,-7.50713l24.34467,-5.77768zm-7.62635,39.51171c-2.49174,-0.43385 -4.36204,-0.28626 -5.61089,0.44276c-1.25084,0.72902 -2.01348,1.88198 -2.29188,3.46285c-0.28338,1.62544 0.02685,2.97551 0.93763,4.05121c0.9088,1.0757 2.74429,1.85524 5.50549,2.33465c2.32271,0.40413 4.10351,0.23376 5.33646,-0.50714c1.23493,-0.74289 1.9926,-1.9117 2.27001,-3.50148c0.26846,-1.52441 -0.06165,-2.84377 -0.98834,-3.9581s-2.64586,-1.88693 -5.15848,-2.32474zm6.39938,26.96087l-12.15344,20.08075l-5.2768,-3.16668l4.07866,-6.7365l-16.15952,-9.70805l4.0021,-6.60873l16.15753,9.70805l4.07866,-6.7365l5.27282,3.16767zm-39.82905,25.00262l-6.54454,2.63081c-0.8392,-1.76213 -1.2757,-3.44205 -1.31249,-5.04371s0.30724,-3.11121 1.0311,-4.5227c0.72485,-1.4105 1.96177,-2.81703 3.70877,-4.22158c2.12086,-1.70468 4.10351,-2.78731 5.94299,-3.25187c1.84345,-0.46455 3.87582,-0.31697 6.10407,0.44672c2.22725,0.7627 4.3153,2.34852 6.26912,4.76141c2.60012,3.2172 3.74258,6.37794 3.42341,9.48519c-0.32216,3.10527 -2.05225,5.91834 -5.19328,8.4392c-2.45893,1.97311 -4.78859,3.02801 -6.99497,3.16866c-2.20637,0.13966 -4.48036,-0.53785 -6.81798,-2.03947l4.39286,-5.44784c0.66022,0.43484 1.20013,0.70624 1.62371,0.81222c0.70298,0.18424 1.398,0.20107 2.08407,0.05448s1.33237,-0.46257 1.93194,-0.94792c1.36718,-1.09452 1.97072,-2.48422 1.81362,-4.16116c-0.10639,-1.25399 -0.86604,-2.74868 -2.27001,-4.48803c-1.74203,-2.1514 -3.26432,-3.36379 -4.57183,-3.63322s-2.55538,0.07726 -3.75153,1.03707c-1.16135,0.9301 -1.77484,1.95825 -1.85041,3.07555c-0.07159,1.12226 0.25554,2.40497 0.98138,3.84618zm-5.19726,20.39672l-7.44141,2.14348l-2.4291,-8.36293l-8.1076,2.33663l2.42711,8.36293l-7.44141,2.14348l-6.9542,-23.95069l7.4434,-2.14348l2.8139,9.69419l8.10959,-2.33663l-2.81588,-9.69419l7.44141,-2.14348l6.9542,23.95069zm-32.95539,6.76919l-7.74766,-0.09905l0.31917,-24.92932l7.74666,0.09707l-0.31818,24.93131zm-17.27712,-0.7627l-7.46826,-2.05235l5.02126,-18.11952l-11.63143,-3.19937l1.63862,-5.91438l19.0987,5.25469l-6.65889,24.03093zm-25.78741,-8.98993l-6.70264,-3.86896l12.55017,-21.57048l6.70264,3.87094l-12.55017,21.5685zm-12.72418,-22.13012l-1.31845,-1.34215c-1.03806,-1.05391 -1.95282,-1.61553 -2.74529,-1.67893c-0.79147,-0.06339 -1.47655,0.18622 -2.05723,0.75477c-0.56278,0.54974 -0.85908,1.2015 -0.88792,1.95429c-0.02784,0.75279 0.46136,1.64426 1.4676,2.66548l1.53323,1.55709l4.00806,-3.91056zm-22.41472,-10.27958l-8.47947,-18.81982l4.893,-2.18805l5.30762,11.77823l3.62426,-1.61949l-4.94172,-10.967l4.66629,-2.08702l4.94172,10.967l4.48533,-2.0058l-5.47069,-12.13977l5.16544,-2.30988l8.64254,19.18136l-22.83432,10.21025zm-0.74076,-37.21668l-0.12628,-1.87505c-0.09943,-1.47191 -0.42855,-2.49016 -0.98735,-3.05277c-0.5588,-0.56063 -1.24488,-0.8142 -2.05524,-0.76072c-0.7865,0.0525 -1.43678,0.3556 -1.94984,0.90929s-0.72187,1.5462 -0.62542,2.97551l0.14517,2.17617l5.59896,-0.37243zm2.09501,-26.72216l0.53096,-1.80076c0.41662,-1.41743 0.46037,-2.48521 0.13025,-3.20531c-0.33111,-0.71912 -0.88593,-1.19258 -1.66547,-1.42139c-0.75667,-0.22089 -1.47257,-0.15947 -2.14572,0.18424c-0.67414,0.34371 -1.21306,1.20249 -1.61774,2.57732l-0.61647,2.09296l5.38419,1.57294zm-1.91206,-24.51133l12.36722,-16.54658l4.30138,3.19144l-7.7397,10.35684l3.18676,2.36238l7.20675,-9.64169l4.10252,3.04287l-7.20775,9.64169l3.94343,2.925l7.97635,-10.67381l4.54101,3.36776l-12.60387,16.86355l-20.07411,-14.88945zm32.16293,-19.39135l2.77512,-1.74925c0.29929,-0.18919 0.81931,-0.65176 1.56007,-1.38771c0.38082,-0.36055 0.59559,-0.80727 0.64431,-1.33819s-0.07258,-1.02717 -0.36591,-1.48875c-0.43451,-0.68445 -0.98635,-1.07174 -1.65453,-1.16287c-0.66917,-0.09113 -1.60382,0.2407 -2.80395,0.99844l-2.89145,1.82255l2.73634,4.30578zm18.84714,-3.44601l7.11926,-1.87505c0.38977,1.14405 0.88593,1.97509 1.48948,2.49511c0.97939,0.83996 2.19544,1.11532 3.65011,0.83005c1.0828,-0.21395 1.86831,-0.63195 2.35552,-1.25598c0.48522,-0.62105 0.66221,-1.26786 0.52897,-1.93745c-0.12628,-0.63492 -0.51903,-1.14801 -1.17925,-1.54025c-0.66122,-0.39125 -2.05027,-0.60818 -4.16914,-0.65473c-3.47312,-0.09113 -6.04043,-0.61511 -7.70391,-1.57294c-1.67342,-0.95486 -2.69955,-2.39111 -3.08136,-4.30776c-0.24957,-1.25895 -0.12131,-2.51987 0.38877,-3.78476c0.50909,-1.2639 1.4328,-2.36139 2.77512,-3.29149c1.34132,-0.9301 3.29116,-1.64921 5.84952,-2.15239c3.13804,-0.61907 5.64668,-0.50814 7.52593,0.32984c1.87726,0.83897 3.22554,2.49709 4.04286,4.97338l-7.07749,1.82849c-0.40866,-1.06282 -0.96746,-1.7859 -1.67541,-2.16725c-0.70894,-0.38036 -1.59885,-0.46554 -2.66972,-0.25456c-0.88394,0.17433 -1.51135,0.49328 -1.88223,0.95387c-0.37287,0.46158 -0.5061,0.95981 -0.39971,1.49568c0.07756,0.38927 0.33111,0.70426 0.75965,0.94495c0.42059,0.25258 1.3274,0.3863 2.72142,0.40116c3.45622,0.06042 5.97182,0.313 7.55079,0.75973c1.57797,0.44672 2.80196,1.14702 3.67,2.09791c0.86704,0.95189 1.4328,2.09593 1.69828,3.43214a7.96243,7.93206 0 0 1 -0.44247,4.60194c-0.60653,1.49766 -1.62371,2.74274 -3.05054,3.73524c-1.42485,0.99151 -3.32597,1.72251 -5.70336,2.19201c-4.17411,0.82411 -7.22266,0.59134 -9.14964,-0.69732c-1.92299,-1.28569 -3.23847,-3.14588 -3.94144,-5.57958zm100.69073,66.72319c4.03192,0.7003 6.97409,2.36436 8.82847,4.98725s2.43308,5.92725 1.73209,9.91309c-0.7169,4.08786 -2.37143,7.04356 -4.96558,8.87008s-5.87836,2.39309 -9.85361,1.7027c-2.88549,-0.50318 -5.16743,-1.39861 -6.84582,-2.68529c-1.67839,-1.28866 -2.87057,-2.93292 -3.57753,-4.93674s-0.8213,-4.36818 -0.34403,-7.0921c0.48323,-2.76849 1.33039,-4.98329 2.53449,-6.6434s2.86858,-2.88637 4.98547,-3.67779c2.11688,-0.79538 4.61857,-0.94 7.50604,-0.43781zm-130.93365,67.79889l-8.98259,-9.13157c-1.95581,-1.99094 -2.94514,-3.94622 -2.96801,-5.86386c-0.02386,-1.91962 0.84317,-3.73524 2.59912,-5.44784c1.80467,-1.76213 3.74755,-2.60011 5.82566,-2.51096c2.0791,0.08717 4.20792,1.24013 6.38844,3.4569l2.96006,3.01018l6.63304,-6.47303l5.42197,5.51124l-17.87768,17.44894zm-31.0851,-52.03977l-0.85809,-12.75786c-0.18693,-2.7784 0.33707,-4.90405 1.573,-6.37596c1.23593,-1.4729 3.08037,-2.29107 5.53333,-2.4545c2.52157,-0.16839 4.543,0.45564 6.06429,1.86911c1.52129,1.41446 2.38535,3.66986 2.59316,6.76622l0.28338,4.20573l9.26498,-0.61907l0.51804,7.69929l-24.97208,1.66704zm-0.19488,-30.72187l3.61233,-12.26953c0.7865,-2.67142 2.01547,-4.48605 3.68591,-5.44388c1.66945,-0.95783 3.68292,-1.09155 6.04242,-0.40116c2.42512,0.70921 4.1055,1.98797 5.04413,3.83825c0.93763,1.84929 0.96746,4.26318 0.09048,7.24167l-1.19019,4.04329l8.911,2.60407l-2.18052,7.40411l-24.01556,-7.01682zm44.07177,-31.68762l-13.38639,-21.0673l10.89465,-6.87022c2.01944,-1.2738 3.67298,-2.07414 4.9616,-2.402c1.28763,-0.32687 2.55538,-0.22881 3.80522,0.29319c1.24885,0.52299 2.29984,1.45606 3.15395,2.80118c0.74474,1.17178 1.1355,2.3396 1.17527,3.50544a6.96017,6.93362 0 0 1 -0.75369,3.37073c-0.34602,0.6894 -0.93565,1.45012 -1.76788,2.28512c0.94261,-0.23277 1.67442,-0.33182 2.19544,-0.29815c0.35,0.0208 0.93266,0.17136 1.748,0.44771c0.81533,0.27734 1.398,0.52101 1.747,0.73001l7.04071,4.07895l-7.38573,4.6584l-7.58658,-4.2097c-0.97243,-0.55073 -1.7122,-0.84194 -2.21632,-0.86967a3.26929,3.25682 0 0 0 -1.91902,0.52695l-0.57968,0.3655l5.41899,8.52637l-6.54554,4.12748zm106.37023,-13.44527l6.78318,9.24647c1.33635,1.82255 2.16759,3.47473 2.49373,4.95853c0.32613,1.4828 0.29531,2.92896 -0.09744,4.33747c-0.39076,1.40851 -1.07982,2.72491 -2.07214,3.95018c-0.98834,1.22725 -2.17157,2.34158 -3.54968,3.34497c-2.15964,1.57195 -4.01403,2.54563 -5.56416,2.92103c-1.55013,0.37739 -3.04458,0.42196 -4.48632,0.13768c-1.44473,-0.28428 -2.66475,-0.83005 -3.66304,-1.63336c-1.36916,-1.09749 -2.45893,-2.20093 -3.27227,-3.30932l-6.7792,-9.24647l20.20735,-14.70719zm-77.00429,29.61447l0,-23.96852l24.59325,0l0,24.89565l17.54558,-17.48064l17.21448,17.14882l-17.6122,17.547l24.85972,0l0,24.49845l-23.79581,0l17.54558,17.47866l-17.34772,17.28353l-18.40964,-18.3414l0,25.5583l-24.59226,0l0,-24.63217l-17.54757,17.48163l-17.41434,-17.34989l17.54757,-17.47866l-24.85774,0l0,-24.63118l25.78741,0l-17.54658,-17.47965l17.34772,-17.28155l16.68252,16.75162z"/>
   <g stroke="null" id="svg_10">
    <g stroke="null" id="svg_6">
     <rect stroke="null" transform="matrix(0 1.0183 -1.02045 0 195.329 -1.67827)" id="svg_4" height="24.83008" width="109.48645" y="94.01925" x="32.95823" fill="#e51b23"/>
     <rect stroke="null" id="svg_5" height="25.28443" width="111.72562" y="74.81605" x="30.51524" fill="#e51b23"/>
    </g>
    <g stroke="null" transform="matrix(0.721568 -0.720046 0.721568 0.720046 -43.1269 95.1638)" id="svg_9">
     <rect transform="rotate(90 95.3047 84.5056)" stroke="null" id="svg_7" height="24.83008" width="109.48645" y="72.0906" x="40.5615" fill="#e51b23"/>
     <rect stroke="null" id="svg_8" height="24.83008" width="109.48645" y="71.92394" x="40.22818" fill="#e51b23"/>
    </g>
   </g>
  </g>
 </g>
</svg>